<svg width="24" height="24" viewBox="0 0 24 24" fill="none" xmlns="http://www.w3.org/2000/svg">
<path d="M12 16.6666C10.2733 16.6666 8.79167 15.7216 7.975 14.3333H6.02667C6.96 16.7249 9.28167 18.4166 12 18.4166C14.7183 18.4166 17.04 16.7249 17.9733 14.3333H16.025C15.2083 15.7216 13.7267 16.6666 12 16.6666ZM11.9883 0.333252C5.54834 0.333252 0.333336 5.55992 0.333336 11.9999C0.333336 18.4399 5.54834 23.6666 11.9883 23.6666C18.44 23.6666 23.6667 18.4399 23.6667 11.9999C23.6667 5.55992 18.44 0.333252 11.9883 0.333252ZM12 21.3333C6.84334 21.3333 2.66667 17.1566 2.66667 11.9999C2.66667 6.84325 6.84334 2.66659 12 2.66659C17.1567 2.66659 21.3333 6.84325 21.3333 11.9999C21.3333 17.1566 17.1567 21.3333 12 21.3333Z" fill="url(#paint0_linear_1380_4939)"/>
<defs>
<linearGradient id="paint0_linear_1380_4939" x1="0.333336" y1="0.333252" x2="23.6667" y2="23.6666" gradientUnits="userSpaceOnUse">
<stop stop-color="#1274FF"/>
<stop offset="0.505208" stop-color="#5F0BCA"/>
<stop offset="1" stop-color="#FF992D"/>
</linearGradient>
</defs>
</svg>
