<svg width="24" height="24" viewBox="0 0 24 24" fill="none" xmlns="http://www.w3.org/2000/svg">
<path d="M16.2 10.8C17.1941 10.8 18 9.99406 18 8.99995C18 8.00584 17.1941 7.19995 16.2 7.19995C15.2059 7.19995 14.4 8.00584 14.4 8.99995C14.4 9.99406 15.2059 10.8 16.2 10.8Z" fill="url(#paint0_linear_1380_4940)"/>
<path d="M7.8 10.8C8.79411 10.8 9.6 9.99406 9.6 8.99995C9.6 8.00584 8.79411 7.19995 7.8 7.19995C6.80589 7.19995 6 8.00584 6 8.99995C6 9.99406 6.80589 10.8 7.8 10.8Z" fill="url(#paint1_linear_1380_4940)"/>
<path d="M11.988 0C5.364 0 0 5.376 0 12C0 18.624 5.364 24 11.988 24C18.624 24 24 18.624 24 12C24 5.376 18.624 0 11.988 0ZM12 21.6C6.696 21.6 2.4 17.304 2.4 12C2.4 6.696 6.696 2.4 12 2.4C17.304 2.4 21.6 6.696 21.6 12C21.6 17.304 17.304 21.6 12 21.6Z" fill="url(#paint2_linear_1380_4940)"/>
<path d="M6 15.6H18V17.4H6V15.6Z" fill="url(#paint3_linear_1380_4940)"/>
<defs>
<linearGradient id="paint0_linear_1380_4940" x1="14.4" y1="7.19995" x2="18" y2="10.8" gradientUnits="userSpaceOnUse">
<stop stop-color="#1274FF"/>
<stop offset="0.505208" stop-color="#5F0BCA"/>
<stop offset="1" stop-color="#FF992D"/>
</linearGradient>
<linearGradient id="paint1_linear_1380_4940" x1="6" y1="7.19995" x2="9.6" y2="10.8" gradientUnits="userSpaceOnUse">
<stop stop-color="#1274FF"/>
<stop offset="0.505208" stop-color="#5F0BCA"/>
<stop offset="1" stop-color="#FF992D"/>
</linearGradient>
<linearGradient id="paint2_linear_1380_4940" x1="0" y1="0" x2="24" y2="24" gradientUnits="userSpaceOnUse">
<stop stop-color="#1274FF"/>
<stop offset="0.505208" stop-color="#5F0BCA"/>
<stop offset="1" stop-color="#FF992D"/>
</linearGradient>
<linearGradient id="paint3_linear_1380_4940" x1="0" y1="0" x2="24" y2="24" gradientUnits="userSpaceOnUse">
<stop stop-color="#1274FF"/>
<stop offset="0.505208" stop-color="#5F0BCA"/>
<stop offset="1" stop-color="#FF992D"/>
</linearGradient>
</defs>
</svg>
