<svg width="24" height="24" viewBox="0 0 24 24" fill="none" xmlns="http://www.w3.org/2000/svg">
<path d="M16.2 10.8001C17.1941 10.8001 18 9.99419 18 9.00007C18 8.00596 17.1941 7.20007 16.2 7.20007C15.2059 7.20007 14.4 8.00596 14.4 9.00007C14.4 9.99419 15.2059 10.8001 16.2 10.8001Z" fill="url(#paint0_linear_1380_4947)"/>
<path d="M7.80001 10.8001C8.79412 10.8001 9.60001 9.99419 9.60001 9.00007C9.60001 8.00596 8.79412 7.20007 7.80001 7.20007C6.8059 7.20007 6.00001 8.00596 6.00001 9.00007C6.00001 9.99419 6.8059 10.8001 7.80001 10.8001Z" fill="url(#paint1_linear_1380_4947)"/>
<path d="M12 14.4C9.204 14.4 6.816 16.14 5.856 18.6H7.86C8.688 17.172 10.224 16.2 12 16.2C13.776 16.2 15.3 17.172 16.14 18.6H18.144C17.184 16.14 14.796 14.4 12 14.4V14.4ZM11.988 0C5.364 0 0 5.376 0 12C0 18.624 5.364 24 11.988 24C18.624 24 24 18.624 24 12C24 5.376 18.624 0 11.988 0ZM12 21.6C6.696 21.6 2.4 17.304 2.4 12C2.4 6.696 6.696 2.4 12 2.4C17.304 2.4 21.6 6.696 21.6 12C21.6 17.304 17.304 21.6 12 21.6Z" fill="url(#paint2_linear_1380_4947)"/>
<defs>
<linearGradient id="paint0_linear_1380_4947" x1="14.4" y1="7.20007" x2="18" y2="10.8001" gradientUnits="userSpaceOnUse">
<stop stop-color="#1274FF"/>
<stop offset="0.505208" stop-color="#5F0BCA"/>
<stop offset="1" stop-color="#FF992D"/>
</linearGradient>
<linearGradient id="paint1_linear_1380_4947" x1="6.00001" y1="7.20007" x2="9.60001" y2="10.8001" gradientUnits="userSpaceOnUse">
<stop stop-color="#1274FF"/>
<stop offset="0.505208" stop-color="#5F0BCA"/>
<stop offset="1" stop-color="#FF992D"/>
</linearGradient>
<linearGradient id="paint2_linear_1380_4947" x1="0" y1="0" x2="24" y2="24" gradientUnits="userSpaceOnUse">
<stop stop-color="#1274FF"/>
<stop offset="0.505208" stop-color="#5F0BCA"/>
<stop offset="1" stop-color="#FF992D"/>
</linearGradient>
</defs>
</svg>
